<svg xmlns="http://www.w3.org/2000/svg" width="80" height="80" viewBox="0 0 80 80" fill="none">
<path opacity="0.1" d="M40 1C47.7135 1 55.2537 3.28731 61.6673 7.57269C68.0808 11.8581 73.0795 17.949 76.0313 25.0753C78.9831 32.2017 79.7555 40.0433 78.2506 47.6085C76.7458 55.1738 73.0314 62.1229 67.5772 67.5772C62.1229 73.0314 55.1738 76.7458 47.6085 78.2506C40.0433 79.7554 32.2017 78.9831 25.0754 76.0313C17.949 73.0795 11.8581 68.0808 7.5727 61.6672C3.28733 55.2537 1.00002 47.7135 1.00002 40C1.01169 29.6601 5.12436 19.7471 12.4357 12.4357C19.7471 5.12434 29.6602 1.01167 40 1ZM40 0C32.0888 0 24.3552 2.34596 17.7772 6.74122C11.1992 11.1365 6.07234 17.3836 3.04484 24.6927C0.0173314 32.0017 -0.774802 40.0444 0.768607 47.8036C2.31202 55.5629 6.12165 62.6902 11.7157 68.2843C17.3098 73.8784 24.4372 77.688 32.1964 79.2314C39.9556 80.7748 47.9983 79.9827 55.3074 76.9552C62.6164 73.9277 68.8635 68.8008 73.2588 62.2228C77.6541 55.6448 80 47.9113 80 40C80 29.3913 75.7857 19.2172 68.2843 11.7157C60.7828 4.21427 50.6087 0 40 0V0Z" fill="black"/>
<path d="M40 14C45.1423 14 50.1692 15.5249 54.4448 18.3818C58.7205 21.2387 62.053 25.2994 64.0209 30.0502C65.9888 34.8011 66.5036 40.0288 65.5004 45.0723C64.4972 50.1159 62.021 54.7486 58.3848 58.3848C54.7486 62.0209 50.1159 64.4972 45.0724 65.5004C40.0289 66.5036 34.8011 65.9887 30.0502 64.0209C25.2994 62.053 21.2387 58.7205 18.3818 54.4448C15.5249 50.1691 14 45.1423 14 40C14.008 33.1068 16.7498 26.4982 21.624 21.624C26.4982 16.7498 33.1068 14.0079 40 14ZM40 12C34.4621 12 29.0486 13.6422 24.444 16.7189C19.8395 19.7955 16.2506 24.1685 14.1314 29.2849C12.0121 34.4012 11.4576 40.0311 12.538 45.4625C13.6184 50.894 16.2852 55.8831 20.201 59.799C24.1169 63.7149 29.106 66.3816 34.5375 67.462C39.969 68.5424 45.5988 67.9879 50.7151 65.8686C55.8315 63.7494 60.2045 60.1605 63.2812 55.556C66.3578 50.9514 68 45.5379 68 40C68 32.5739 65.05 25.452 59.799 20.201C54.548 14.95 47.4261 12 40 12Z" fill="#E4002B"/>
<path d="M40 14V17" stroke="#E4002B" stroke-width="2" stroke-linecap="round" stroke-linejoin="round"/>
<path d="M40 63V66" stroke="#E4002B" stroke-width="2" stroke-linecap="round" stroke-linejoin="round"/>
<path d="M27 17.4834L28.5 20.0815" stroke="#E4002B" stroke-width="2" stroke-linecap="round" stroke-linejoin="round"/>
<path d="M51.5 59.9187L53 62.5168" stroke="#E4002B" stroke-width="2" stroke-linecap="round" stroke-linejoin="round"/>
<path d="M17.4834 27L20.0815 28.5" stroke="#E4002B" stroke-width="2" stroke-linecap="round" stroke-linejoin="round"/>
<path d="M59.9187 51.5L62.5168 53" stroke="#E4002B" stroke-width="2" stroke-linecap="round" stroke-linejoin="round"/>
<path d="M14 40H17" stroke="#E4002B" stroke-width="2" stroke-linecap="round" stroke-linejoin="round"/>
<path d="M63 40H66" stroke="#E4002B" stroke-width="2" stroke-linecap="round" stroke-linejoin="round"/>
<path d="M17.4834 53L20.0815 51.5" stroke="#E4002B" stroke-width="2" stroke-linecap="round" stroke-linejoin="round"/>
<path d="M59.9187 28.5L62.5168 27" stroke="#E4002B" stroke-width="2" stroke-linecap="round" stroke-linejoin="round"/>
<path d="M27 62.5168L28.5 59.9187" stroke="#E4002B" stroke-width="2" stroke-linecap="round" stroke-linejoin="round"/>
<path d="M51.5 20.0815L53 17.4834" stroke="#E4002B" stroke-width="2" stroke-linecap="round" stroke-linejoin="round"/>
<path d="M40 23V40H53" stroke="#E4002B" stroke-width="2" stroke-linecap="round" stroke-linejoin="round"/>
</svg>
