<svg xmlns="http://www.w3.org/2000/svg" width="80" height="80" viewBox="0 0 80 80">
  <defs>
    <style>
      .cls-1 {
        fill: #e6e6e6;
      }

      .cls-2 {
        fill: #e4002b;
      }

      .cls-3 {
        fill: none;
        stroke: #e4002b;
        stroke-linecap: round;
        stroke-linejoin: round;
        stroke-width: 2px;
      }
    </style>
  </defs>
  <title>Icons</title>
  <g id="grey_circle" data-name="grey circle">
    <path class="cls-1" d="M40,1A39,39,0,1,1,1,40,39.0441,39.0441,0,0,1,40,1m0-1A40,40,0,1,0,80,40,40,40,0,0,0,40,0Z"/>
  </g>
  <g id="graphic">
    <path class="cls-2" d="M40,14A26,26,0,1,1,14,40,26.03,26.03,0,0,1,40,14m0-2A28,28,0,1,0,68,40,28,28,0,0,0,40,12Z"/>
    <path class="cls-2" d="M40,14c7.5888,0,14,11.9065,14,26S47.5888,66,40,66,26,54.0935,26,40s6.4112-26,14-26m0-2c-8.8366,0-16,12.536-16,28s7.1634,28,16,28S56,55.464,56,40,48.8366,12,40,12Z"/>
    <line class="cls-3" x1="40" y1="12.9333" x2="40" y2="67.0667"/>
    <line class="cls-3" x1="13" y1="40" x2="67" y2="40"/>
    <line class="cls-3" x1="16.6236" y1="27" x2="63.3764" y2="27"/>
    <line class="cls-3" x1="17.0406" y1="54" x2="62.9594" y2="54"/>
  </g>
</svg>
