<svg xmlns="http://www.w3.org/2000/svg" width="80" height="80" viewBox="0 0 80 80">
  <defs>
    <style>
      .cls-1 {
        fill: #e6e6e6;
      }

      .cls-2, .cls-3 {
        fill: none;
        stroke: #e4002b;
        stroke-width: 2px;
      }

      .cls-2 {
        stroke-miterlimit: 10;
      }

      .cls-3 {
        stroke-linecap: round;
        stroke-linejoin: round;
      }
    </style>
  </defs>
  <title>Icons</title>
  <g id="grey_circle" data-name="grey circle">
    <path class="cls-1" d="M40,1A39,39,0,1,1,1,40,39.0441,39.0441,0,0,1,40,1m0-1A40,40,0,1,0,80,40,40,40,0,0,0,40,0Z"/>
  </g>
  <g id="graphic">
    <circle class="cls-2" cx="55" cy="18.5" r="4.5"/>
    <polyline class="cls-3" points="60 34 60 65 50 65 50 34"/>
    <path class="cls-3" d="M60,46h4V32.8333A6.8333,6.8333,0,0,0,57.1667,26H52.8333A6.8333,6.8333,0,0,0,46,32.8333V46h4"/>
    <line class="cls-3" x1="55" y1="51" x2="55" y2="65"/>
    <circle class="cls-2" cx="24" cy="23.5" r="4.5"/>
    <circle class="cls-2" cx="39" cy="48.5" r="3.5"/>
    <polyline class="cls-3" points="28 52 28 65 20 65 20 52"/>
    <path class="cls-3" d="M29.4444,47H32V37.8333C32,34.0594,29.2805,31,25.9259,31H22.0741C18.72,31,16,34.0594,16,37.8333V47h2.5556"/>
    <line class="cls-3" x1="24" y1="52" x2="24" y2="65"/>
    <polyline class="cls-3" points="20 38 18.333 52 30.25 52 28 38"/>
    <polygon class="cls-3" points="32.167 47 37.417 52 40.75 52 46 46 49.571 46 43 56.083 43 65 35 65 34.917 56.5 29.611 47 32.167 47"/>
    <line class="cls-3" x1="38.9583" y1="58" x2="38.9583" y2="65.1667"/>
  </g>
</svg>
