<svg xmlns="http://www.w3.org/2000/svg" width="80" height="80" viewBox="0 0 80 80">
  <defs>
    <style>
      .cls-1 {
        fill: #e6e6e6;
      }

      .cls-2 {
        fill: none;
        stroke: #e4002b;
        stroke-linecap: round;
        stroke-linejoin: round;
        stroke-width: 2px;
      }
    </style>
  </defs>
  <title>Icons</title>
  <g id="grey_circle" data-name="grey circle">
    <path class="cls-1" d="M40,1A39,39,0,1,1,1,40,39.0442,39.0442,0,0,1,40,1m0-1A40,40,0,1,0,80,40,40,40,0,0,0,40,0Z"/>
  </g>
  <g id="graphic">
    <path class="cls-2" d="M23,19H50a4,4,0,0,1,4,4V61a4,4,0,0,1-4,4H23a0,0,0,0,1,0,0V19A0,0,0,0,1,23,19Z"/>
    <path class="cls-2" d="M27,19V15H54.41A3.59,3.59,0,0,1,58,18.59V58.18a3.5665,3.5665,0,0,1-3.5429,3.59"/>
    <line class="cls-2" x1="28" y1="55" x2="49" y2="55"/>
    <circle class="cls-2" cx="38.5" cy="37.5" r="10.5"/>
  </g>
</svg>
