<svg width="80" height="80" viewBox="0 0 80 80" fill="none" xmlns="http://www.w3.org/2000/svg">
<g clip-path="url(#clip0)">
<path d="M40 1C47.7135 1 55.2537 3.28731 61.6673 7.57269C68.0808 11.8581 73.0795 17.949 76.0313 25.0753C78.9831 32.2017 79.7555 40.0433 78.2506 47.6085C76.7458 55.1738 73.0314 62.1229 67.5772 67.5772C62.1229 73.0314 55.1738 76.7458 47.6085 78.2506C40.0433 79.7554 32.2017 78.9831 25.0754 76.0313C17.949 73.0795 11.8581 68.0808 7.5727 61.6672C3.28733 55.2537 1.00002 47.7135 1.00002 40C1.01169 29.6601 5.12436 19.7471 12.4357 12.4357C19.7471 5.12434 29.6602 1.01167 40 1ZM40 0C32.0888 0 24.3552 2.34596 17.7772 6.74122C11.1992 11.1365 6.07234 17.3836 3.04484 24.6927C0.0173314 32.0017 -0.774802 40.0444 0.768607 47.8036C2.31202 55.5629 6.12165 62.6902 11.7157 68.2843C17.3098 73.8784 24.4372 77.688 32.1964 79.2314C39.9556 80.7748 47.9983 79.9827 55.3074 76.9552C62.6164 73.9277 68.8635 68.8008 73.2588 62.2228C77.6541 55.6448 80 47.9113 80 40C80 29.3913 75.7857 19.2172 68.2843 11.7157C60.7828 4.21427 50.6087 0 40 0V0Z" fill="#E6E6E6"/>
<path d="M34.6708 39.0017C35.1157 39.3289 35.7417 39.2335 36.0689 38.7886C36.3961 38.3437 36.3006 37.7177 35.8557 37.3905L34.6708 39.0017ZM16.7269 24.5642L16.0198 23.857C15.8136 24.0632 15.7077 24.349 15.7297 24.6397C15.7518 24.9304 15.8996 25.197 16.1344 25.3698L16.7269 24.5642ZM19.1791 22.1119L19.4012 21.1369C19.066 21.0606 18.7151 21.1617 18.472 21.4048L19.1791 22.1119ZM45.1565 29.0557C45.695 29.1784 46.231 28.8413 46.3537 28.3029C46.4763 27.7644 46.1393 27.2284 45.6008 27.1057L45.1565 29.0557ZM24.6662 54.492L25.5194 53.9704C25.4368 53.8352 25.3233 53.7217 25.1882 53.639L24.6662 54.492ZM16.5061 49.4983L15.9755 48.6507C15.6819 48.8345 15.5043 49.157 15.5061 49.5034C15.5079 49.8497 15.6887 50.1705 15.9841 50.3512L16.5061 49.4983ZM20.7106 46.8661L21.0181 45.9146C20.7371 45.8238 20.4303 45.8618 20.18 46.0185L20.7106 46.8661ZM25.4639 48.4022L25.1564 49.3537C25.5136 49.4692 25.9055 49.3748 26.171 49.1093L25.4639 48.4022ZM51.805 22.0611L51.2744 21.2135C51.2104 21.2535 51.1512 21.3006 51.0979 21.354L51.805 22.0611ZM58.7991 20.974C59.3418 21.0765 59.8648 20.7198 59.9674 20.1771C60.07 19.6344 59.7132 19.1113 59.1706 19.0088L58.7991 20.974ZM29.6473 62.6394L28.7941 63.161C28.9748 63.4566 29.2955 63.6376 29.642 63.6394C29.9884 63.6413 30.311 63.4637 30.4949 63.1701L29.6473 62.6394ZM32.2794 58.435L33.127 58.9656C33.2837 58.7153 33.3218 58.4085 33.2309 58.1275L32.2794 58.435ZM30.7433 53.6817L30.0362 52.9746C29.7707 53.2401 29.6763 53.6319 29.7918 53.9892L30.7433 53.6817ZM57.0845 27.3405L57.7916 28.0477C57.8449 27.9943 57.892 27.9351 57.9321 27.8712L57.0845 27.3405ZM60.1368 19.975C60.0342 19.4323 59.5111 19.0755 58.9684 19.1781C58.4258 19.2807 58.069 19.8038 58.1716 20.3465L60.1368 19.975ZM41.5302 43.0646C41.2021 42.6203 40.576 42.5262 40.1317 42.8543C39.6875 43.1824 39.5933 43.8085 39.9214 44.2528L41.5302 43.0646ZM54.5814 62.4187L53.777 63.0128C53.95 63.247 54.2165 63.3942 54.5068 63.4159C54.7972 63.4376 55.0826 63.3317 55.2885 63.1258L54.5814 62.4187ZM57.0336 59.9665L57.7407 60.6736C57.9838 60.4305 58.085 60.0795 58.0086 59.7443L57.0336 59.9665ZM52.0398 33.5448C51.9172 33.0063 51.3812 32.6692 50.8427 32.7919C50.3042 32.9145 49.9671 33.4505 50.0898 33.989L52.0398 33.5448ZM35.8557 37.3905L17.3193 23.7585L16.1344 25.3698L34.6708 39.0017L35.8557 37.3905ZM17.434 25.2713L19.8862 22.819L18.472 21.4048L16.0198 23.857L17.434 25.2713ZM18.957 23.087L45.1565 29.0557L45.6008 27.1057L19.4012 21.1369L18.957 23.087ZM25.1882 53.639L17.0281 48.6453L15.9841 50.3512L24.1442 55.3449L25.1882 53.639ZM17.0367 50.3459L21.2412 47.7137L20.18 46.0185L15.9755 48.6507L17.0367 50.3459ZM20.4031 47.8177L25.1564 49.3537L25.7714 47.4507L21.0181 45.9146L20.4031 47.8177ZM26.171 49.1093L52.5121 22.7682L51.0979 21.354L24.7568 47.6951L26.171 49.1093ZM52.3356 22.9087C52.9811 22.5046 54.1144 21.9088 55.359 21.4721C56.6317 21.0254 57.8721 20.7987 58.7991 20.974L59.1706 19.0088C57.7173 18.7341 56.0685 19.1035 54.6967 19.5849C53.2968 20.0761 52.0304 20.7402 51.2744 21.2135L52.3356 22.9087ZM23.813 55.0136L28.7941 63.161L30.5004 62.1178L25.5194 53.9704L23.813 55.0136ZM30.4949 63.1701L33.127 58.9656L31.4318 57.9043L28.7997 62.1088L30.4949 63.1701ZM33.2309 58.1275L31.6949 53.3742L29.7918 53.9892L31.3279 58.7425L33.2309 58.1275ZM31.4504 54.3888L41.4501 44.3891L40.0359 42.9749L30.0362 52.9746L31.4504 54.3888ZM41.4501 44.3891L57.7916 28.0477L56.3774 26.6334L40.0359 42.9749L41.4501 44.3891ZM57.9321 27.8712C58.4054 27.1151 59.0694 25.8487 59.5607 24.4488C60.042 23.0771 60.4115 21.4282 60.1368 19.975L58.1716 20.3465C58.3468 21.2735 58.1201 22.5138 57.6735 23.7866C57.2367 25.0311 56.6409 26.1645 56.2369 26.8099L57.9321 27.8712ZM39.9214 44.2528L39.9386 44.2761L41.5474 43.0879L41.5302 43.0646L39.9214 44.2528ZM39.9386 44.2761L53.777 63.0128L55.3858 61.8246L41.5474 43.0879L39.9386 44.2761ZM55.2885 63.1258L57.7407 60.6736L56.3265 59.2594L53.8743 61.7116L55.2885 63.1258ZM58.0086 59.7443L52.0398 33.5448L50.0898 33.989L56.0586 60.1886L58.0086 59.7443Z" fill="#E4002B"/>
</g>
<defs>
<clipPath id="clip0">
<rect width="80" height="80" fill="white"/>
</clipPath>
</defs>
</svg>
