<svg width="690" height="428" viewBox="0 0 690 428" fill="none" xmlns="http://www.w3.org/2000/svg">
<rect width="690" height="428" fill="white"/>
<path fill-rule="evenodd" clip-rule="evenodd" d="M175.999 80C197.537 80 214.998 62.5391 214.998 41C214.998 19.4609 197.537 2 175.999 2C154.46 2 137 19.4609 137 41C137 62.5391 154.46 80 175.999 80ZM175.999 81C198.09 81 215.998 63.0914 215.998 41C215.998 18.9086 198.09 1 175.999 1C153.908 1 136 18.9086 136 41C136 63.0914 153.908 81 175.999 81Z" fill="#E6E6E6"/>
<path fill-rule="evenodd" clip-rule="evenodd" d="M165.588 34.4116C165.588 26.3854 173.629 20.2351 183.058 20.2351C192.487 20.2351 200.528 26.3854 200.528 34.4116V34.4221L200.528 34.4221C200.498 37.2359 199.51 39.9511 197.734 42.1224C197.913 44.2706 198.78 46.308 200.21 47.9296C200.482 48.2382 200.538 48.6819 200.35 49.0479C200.162 49.4139 199.769 49.6275 199.36 49.5861C196.597 49.3068 193.955 48.3211 191.688 46.7267C189.734 47.6264 187.647 48.2081 185.507 48.4483C184.958 48.5099 184.463 48.1149 184.402 47.566C184.34 47.0172 184.735 46.5223 185.284 46.4607C187.398 46.2235 189.453 45.6166 191.356 44.6678C191.699 44.4973 192.108 44.5366 192.411 44.7692C192.46 44.8066 192.504 44.844 192.524 44.8611L192.55 44.8824L192.556 44.8871C192.557 44.8881 192.558 44.8885 192.558 44.8885L191.96 45.6905L192.555 44.8869C193.965 45.9306 195.551 46.6993 197.229 47.1609C196.321 45.5359 195.796 43.7119 195.711 41.8291C195.699 41.5713 195.788 41.3189 195.958 41.1248C197.589 39.2639 198.501 36.8808 198.528 34.4063C198.525 27.8803 191.819 22.2351 183.058 22.2351C174.294 22.2351 167.588 27.8834 167.588 34.4116C167.588 34.4535 167.588 34.4954 167.589 34.5371C167.595 35.0894 167.153 35.5426 166.601 35.5494C166.049 35.5562 165.596 35.114 165.589 34.5618C165.588 34.5118 165.588 34.4617 165.588 34.4116Z" fill="#E4002B"/>
<path fill-rule="evenodd" clip-rule="evenodd" d="M153.471 47.583C153.498 50.0576 154.41 52.4409 156.041 54.3019C156.211 54.496 156.3 54.7484 156.288 55.0062C156.203 56.889 155.678 58.713 154.77 60.338C156.448 59.8766 158.032 59.1084 159.442 58.0653C159.442 58.0653 159.442 58.0653 159.442 58.0653C159.442 58.0651 159.442 58.0647 159.443 58.0642L159.449 58.0595L159.475 58.0382L159.481 58.0331C159.503 58.0144 159.543 57.9803 159.588 57.9463C159.89 57.7142 160.299 57.6745 160.64 57.8438C163.218 59.1213 166.059 59.779 168.936 59.7647L168.941 59.7647C177.705 59.7647 184.411 54.1164 184.411 47.5882C184.411 41.06 177.705 35.4117 168.941 35.4117C160.18 35.4117 153.474 41.057 153.471 47.583ZM151.471 47.5882C151.471 39.5621 159.512 33.4117 168.941 33.4117C178.37 33.4117 186.411 39.5621 186.411 47.5882C186.411 55.6136 178.371 61.7635 168.944 61.7647C165.963 61.7792 163.018 61.1428 160.313 59.903C158.044 61.4978 155.402 62.4839 152.639 62.7632C152.23 62.8046 151.837 62.591 151.649 62.225C151.461 61.859 151.517 61.4153 151.789 61.1067C153.219 59.4851 154.086 57.4477 154.265 55.2995C152.489 53.128 151.5 50.4127 151.471 47.5987L151.471 47.5882H151.471Z" fill="#E4002B"/>
<path fill-rule="evenodd" clip-rule="evenodd" d="M160.883 43.8234C160.883 43.2711 161.331 42.8234 161.883 42.8234H176C176.552 42.8234 177 43.2711 177 43.8234C177 44.3756 176.552 44.8234 176 44.8234H161.883C161.331 44.8234 160.883 44.3756 160.883 43.8234Z" fill="#E4002B"/>
<path fill-rule="evenodd" clip-rule="evenodd" d="M160.883 50.4116C160.883 49.8593 161.331 49.4116 161.883 49.4116H176C176.552 49.4116 177 49.8593 177 50.4116C177 50.9639 176.552 51.4116 176 51.4116H161.883C161.331 51.4116 160.883 50.9639 160.883 50.4116Z" fill="#E4002B"/>
<path fill-rule="evenodd" clip-rule="evenodd" d="M175 30.6467C175 30.0944 175.448 29.6467 176 29.6467H190.117C190.67 29.6467 191.117 30.0944 191.117 30.6467C191.117 31.199 190.67 31.6467 190.117 31.6467H176C175.448 31.6467 175 31.199 175 30.6467Z" fill="#E4002B"/>
<path fill-rule="evenodd" clip-rule="evenodd" d="M178.764 37.2351C178.764 36.6828 179.211 36.2351 179.764 36.2351H190.116C190.669 36.2351 191.116 36.6828 191.116 37.2351C191.116 37.7874 190.669 38.2351 190.116 38.2351H179.764C179.211 38.2351 178.764 37.7874 178.764 37.2351Z" fill="#E4002B"/>
<path fill-rule="evenodd" clip-rule="evenodd" d="M688.996 176.266C688.996 101.705 628.555 41.2656 554 41.2656V40.2656C629.112 40.2656 690 101.157 690 176.266C690 251.375 629.112 312.266 554 312.266V311.266C628.555 311.266 688.996 250.826 688.996 176.266Z" fill="#E6E6E6"/>
<path fill-rule="evenodd" clip-rule="evenodd" d="M474 41L385 41L385 40L474 40L474 41Z" fill="#E6E6E6"/>
<path fill-rule="evenodd" clip-rule="evenodd" d="M305 41L216 41L216 40L305 40L305 41Z" fill="#E6E6E6"/>
<path d="M117.13 110H118.726V103.16H121.27V101.936H114.574V103.16H117.13V110ZM122.416 110H124.024L124.768 108.08H128.14L128.884 110H130.492L127.192 101.936H125.716L122.416 110ZM126.46 103.688L127.72 106.916H125.2L126.46 103.688ZM133.344 110H138.528V108.776H134.94V101.936H133.344V110ZM141.601 110H143.137V107.456L143.917 106.64L146.833 110H148.705L144.985 105.704L148.537 101.936H146.701L143.137 105.764V101.936H141.601V110ZM157.689 110H159.285V103.16H161.829V101.936H155.133V103.16H157.689V110ZM163.969 105.968C163.969 108.416 165.697 110.144 168.169 110.144C170.629 110.144 172.369 108.416 172.369 105.968C172.369 103.52 170.629 101.792 168.169 101.792C165.697 101.792 163.969 103.52 163.969 105.968ZM165.589 105.968C165.589 104.264 166.657 103.052 168.169 103.052C169.681 103.052 170.737 104.264 170.737 105.968C170.737 107.672 169.681 108.884 168.169 108.884C166.657 108.884 165.589 107.672 165.589 105.968ZM179.172 110H180.78L181.524 108.08H184.896L185.64 110H187.248L183.948 101.936H182.472L179.172 110ZM183.216 103.688L184.476 106.916H181.956L183.216 103.688ZM189.82 104.096C189.82 107.12 194.284 106.016 194.284 107.792C194.284 108.464 193.672 108.884 192.688 108.884C191.956 108.884 191.068 108.656 190.132 108.296L189.772 109.484C190.864 109.94 191.884 110.144 192.808 110.144C194.608 110.144 195.844 109.196 195.844 107.792C195.844 104.696 191.392 105.824 191.392 104.096C191.392 103.46 191.992 103.052 192.928 103.052C193.612 103.052 194.38 103.22 195.196 103.544L195.556 102.356C194.584 101.984 193.684 101.792 192.808 101.792C191.044 101.792 189.82 102.728 189.82 104.096ZM200.767 110H202.363V103.16H204.907V101.936H198.211V103.16H200.767V110ZM207.047 105.968C207.047 108.416 208.775 110.144 211.247 110.144C213.707 110.144 215.447 108.416 215.447 105.968C215.447 103.52 213.707 101.792 211.247 101.792C208.775 101.792 207.047 103.52 207.047 105.968ZM208.667 105.968C208.667 104.264 209.735 103.052 211.247 103.052C212.759 103.052 213.815 104.264 213.815 105.968C213.815 107.672 212.759 108.884 211.247 108.884C209.735 108.884 208.667 107.672 208.667 105.968ZM218.715 110H220.191V104.12L224.475 110H226.023V101.936H224.547V107.816L220.263 101.936H218.715V110ZM229.375 104.096C229.375 107.12 233.839 106.016 233.839 107.792C233.839 108.464 233.227 108.884 232.243 108.884C231.511 108.884 230.623 108.656 229.687 108.296L229.327 109.484C230.419 109.94 231.439 110.144 232.363 110.144C234.163 110.144 235.399 109.196 235.399 107.792C235.399 104.696 230.947 105.824 230.947 104.096C230.947 103.46 231.547 103.052 232.483 103.052C233.167 103.052 233.935 103.22 234.751 103.544L235.111 102.356C234.139 101.984 233.239 101.792 232.363 101.792C230.599 101.792 229.375 102.728 229.375 104.096ZM126.514 124H128.11V115.936H126.514V124ZM131.935 124H133.411V118.12L135.679 121.228H136.567L138.823 118.12V124H140.299V115.936H138.751L136.123 119.56L133.483 115.936H131.935V124ZM144.118 124H145.594V118.12L147.862 121.228H148.75L151.006 118.12V124H152.482V115.936H150.934L148.306 119.56L145.666 115.936H144.118V124ZM156.301 124H157.897V115.936H156.301V124ZM168.562 119.548H165.274V120.724H167.086V122.62C166.642 122.812 166.15 122.92 165.634 122.92C163.93 122.92 162.742 121.72 162.742 119.968C162.742 118.24 163.906 117.016 165.598 117.016C166.318 117.016 167.026 117.268 167.818 117.688L168.406 116.62C167.41 116.08 166.402 115.792 165.418 115.792C162.922 115.792 161.182 117.52 161.182 119.968C161.182 122.416 162.958 124.144 165.514 124.144C166.558 124.144 167.554 123.892 168.562 123.46V119.548ZM172.077 124H173.613V121.06H174.861L176.817 124H178.557L176.349 120.82C177.477 120.58 178.209 119.668 178.209 118.468C178.209 116.98 177.057 115.936 175.437 115.936H172.077V124ZM173.613 117.16H175.197C176.037 117.16 176.637 117.712 176.637 118.492C176.637 119.296 176.037 119.824 175.197 119.824H173.613V117.16ZM180.839 124H182.447L183.191 122.08H186.563L187.307 124H188.915L185.615 115.936H184.139L180.839 124ZM184.883 117.688L186.143 120.916H183.623L184.883 117.688ZM192.618 124H194.214V117.16H196.758V115.936H190.062V117.16H192.618V124ZM199.824 124H201.42V115.936H199.824V124ZM204.706 119.968C204.706 122.416 206.434 124.144 208.906 124.144C211.366 124.144 213.106 122.416 213.106 119.968C213.106 117.52 211.366 115.792 208.906 115.792C206.434 115.792 204.706 117.52 204.706 119.968ZM206.326 119.968C206.326 118.264 207.394 117.052 208.906 117.052C210.418 117.052 211.474 118.264 211.474 119.968C211.474 121.672 210.418 122.884 208.906 122.884C207.394 122.884 206.326 121.672 206.326 119.968ZM216.374 124H217.85V118.12L222.134 124H223.682V115.936H222.206V121.816L217.922 115.936H216.374V124ZM138.912 138H140.52L141.264 136.08H144.636L145.38 138H146.988L143.688 129.936H142.212L138.912 138ZM142.956 131.688L144.216 134.916H141.696L142.956 131.688ZM149.84 138H152.972C155.444 138 157.124 136.344 157.124 133.968C157.124 131.568 155.444 129.936 152.972 129.936H149.84V138ZM155.492 133.968C155.492 135.612 154.376 136.776 152.78 136.776H151.436V131.16H152.78C154.376 131.16 155.492 132.324 155.492 133.968ZM167.311 129.936H165.643L163.279 136.068L160.903 129.936H159.235L162.535 138H164.011L167.311 129.936ZM170.163 138H171.759V129.936H170.163V138ZM175.116 132.096C175.116 135.12 179.58 134.016 179.58 135.792C179.58 136.464 178.968 136.884 177.984 136.884C177.252 136.884 176.364 136.656 175.428 136.296L175.068 137.484C176.16 137.94 177.18 138.144 178.104 138.144C179.904 138.144 181.14 137.196 181.14 135.792C181.14 132.696 176.688 133.824 176.688 132.096C176.688 131.46 177.288 131.052 178.224 131.052C178.908 131.052 179.676 131.22 180.492 131.544L180.852 130.356C179.88 129.984 178.98 129.792 178.104 129.792C176.34 129.792 175.116 130.728 175.116 132.096ZM183.899 133.968C183.899 136.416 185.627 138.144 188.099 138.144C190.559 138.144 192.299 136.416 192.299 133.968C192.299 131.52 190.559 129.792 188.099 129.792C185.627 129.792 183.899 131.52 183.899 133.968ZM185.519 133.968C185.519 132.264 186.587 131.052 188.099 131.052C189.611 131.052 190.667 132.264 190.667 133.968C190.667 135.672 189.611 136.884 188.099 136.884C186.587 136.884 185.519 135.672 185.519 133.968ZM195.567 138H197.103V135.06H198.351L200.307 138H202.047L199.839 134.82C200.967 134.58 201.699 133.668 201.699 132.468C201.699 130.98 200.547 129.936 198.927 129.936H195.567V138ZM197.103 131.16H198.687C199.527 131.16 200.127 131.712 200.127 132.492C200.127 133.296 199.527 133.824 198.687 133.824H197.103V131.16ZM204.821 132.096C204.821 135.12 209.285 134.016 209.285 135.792C209.285 136.464 208.673 136.884 207.689 136.884C206.957 136.884 206.069 136.656 205.133 136.296L204.773 137.484C205.865 137.94 206.885 138.144 207.809 138.144C209.609 138.144 210.845 137.196 210.845 135.792C210.845 132.696 206.393 133.824 206.393 132.096C206.393 131.46 206.993 131.052 207.929 131.052C208.613 131.052 209.381 131.22 210.197 131.544L210.557 130.356C209.585 129.984 208.685 129.792 207.809 129.792C206.045 129.792 204.821 130.728 204.821 132.096Z" fill="#333333"/>
<path d="M306.78 105.968C306.78 108.416 308.472 110.144 310.92 110.144C311.892 110.144 312.9 109.832 313.812 109.232L313.164 108.164C312.504 108.62 311.82 108.872 311.124 108.872C309.516 108.872 308.4 107.684 308.4 105.968C308.4 104.252 309.516 103.064 311.124 103.064C311.82 103.064 312.504 103.316 313.164 103.772L313.812 102.704C312.9 102.104 311.892 101.792 310.92 101.792C308.472 101.792 306.78 103.508 306.78 105.968ZM316.197 105.968C316.197 108.416 317.925 110.144 320.397 110.144C322.857 110.144 324.597 108.416 324.597 105.968C324.597 103.52 322.857 101.792 320.397 101.792C317.925 101.792 316.197 103.52 316.197 105.968ZM317.817 105.968C317.817 104.264 318.885 103.052 320.397 103.052C321.909 103.052 322.965 104.264 322.965 105.968C322.965 107.672 321.909 108.884 320.397 108.884C318.885 108.884 317.817 107.672 317.817 105.968ZM327.865 110H329.341V104.12L331.609 107.228H332.497L334.753 104.12V110H336.229V101.936H334.681L332.053 105.56L329.413 101.936H327.865V110ZM340.048 110H341.584V107.252H343.348C345.028 107.252 346.216 106.148 346.216 104.588C346.216 103.04 345.028 101.936 343.348 101.936H340.048V110ZM341.584 103.16H343.108C344.02 103.16 344.644 103.76 344.644 104.588C344.644 105.428 344.02 106.016 343.108 106.016H341.584V103.16ZM349.383 110H354.567V108.776H350.979V101.936H349.383V110ZM357.64 110H363.34V108.8H359.236V106.46H362.764V105.284H359.236V103.136H363.148V101.936H357.64V110ZM368.471 110H370.067V103.16H372.611V101.936H365.915V103.16H368.471V110ZM375.678 110H381.378V108.8H377.274V106.46H380.802V105.284H377.274V103.136H381.186V101.936H375.678V110ZM298.817 124H300.413V115.936H298.817V124ZM304.238 124H305.714V118.12L309.998 124H311.546V115.936H310.07V121.816L305.786 115.936H304.238V124ZM322.482 115.936H320.814L318.45 122.068L316.074 115.936H314.406L317.706 124H319.182L322.482 115.936ZM325.334 124H331.034V122.8H326.93V120.46H330.458V119.284H326.93V117.136H330.842V115.936H325.334V124ZM333.885 118.096C333.885 121.12 338.349 120.016 338.349 121.792C338.349 122.464 337.737 122.884 336.753 122.884C336.021 122.884 335.133 122.656 334.197 122.296L333.837 123.484C334.929 123.94 335.949 124.144 336.873 124.144C338.673 124.144 339.909 123.196 339.909 121.792C339.909 118.696 335.457 119.824 335.457 118.096C335.457 117.46 336.057 117.052 336.993 117.052C337.677 117.052 338.445 117.22 339.261 117.544L339.621 116.356C338.649 115.984 337.749 115.792 336.873 115.792C335.109 115.792 333.885 116.728 333.885 118.096ZM344.832 124H346.428V117.16H348.972V115.936H342.276V117.16H344.832V124ZM352.038 124H353.514V118.12L355.782 121.228H356.67L358.926 118.12V124H360.402V115.936H358.854L356.226 119.56L353.586 115.936H352.038V124ZM364.221 124H369.921V122.8H365.817V120.46H369.345V119.284H365.817V117.136H369.729V115.936H364.221V124ZM373.24 124H374.716V118.12L379 124H380.548V115.936H379.072V121.816L374.788 115.936H373.24V124ZM386.18 124H387.776V117.16H390.32V115.936H383.624V117.16H386.18V124Z" fill="#333333"/>
<path d="M482.335 110H483.871V107.252H485.635C487.315 107.252 488.503 106.148 488.503 104.588C488.503 103.04 487.315 101.936 485.635 101.936H482.335V110ZM483.871 103.16H485.395C486.307 103.16 486.931 103.76 486.931 104.588C486.931 105.428 486.307 106.016 485.395 106.016H483.871V103.16ZM491.67 110H493.206V107.06H494.454L496.41 110H498.15L495.942 106.82C497.07 106.58 497.802 105.668 497.802 104.468C497.802 102.98 496.65 101.936 495.03 101.936H491.67V110ZM493.206 103.16H494.79C495.63 103.16 496.23 103.712 496.23 104.492C496.23 105.296 495.63 105.824 494.79 105.824H493.206V103.16ZM501.392 110H507.092V108.8H502.988V106.46H506.516V105.284H502.988V103.136H506.9V101.936H501.392V110ZM510.411 110H511.947V107.252H513.711C515.391 107.252 516.579 106.148 516.579 104.588C516.579 103.04 515.391 101.936 513.711 101.936H510.411V110ZM511.947 103.16H513.471C514.383 103.16 515.007 103.76 515.007 104.588C515.007 105.428 514.383 106.016 513.471 106.016H511.947V103.16ZM518.012 110H519.62L520.364 108.08H523.736L524.48 110H526.088L522.788 101.936H521.312L518.012 110ZM522.056 103.688L523.316 106.916H520.796L522.056 103.688ZM528.94 110H530.476V107.06H531.724L533.68 110H535.42L533.212 106.82C534.34 106.58 535.072 105.668 535.072 104.468C535.072 102.98 533.92 101.936 532.3 101.936H528.94V110ZM530.476 103.16H532.06C532.9 103.16 533.5 103.712 533.5 104.492C533.5 105.296 532.9 105.824 532.06 105.824H530.476V103.16ZM538.662 110H544.362V108.8H540.258V106.46H543.786V105.284H540.258V103.136H544.17V101.936H538.662V110ZM468.517 124H471.649C474.121 124 475.801 122.344 475.801 119.968C475.801 117.568 474.121 115.936 471.649 115.936H468.517V124ZM474.169 119.968C474.169 121.612 473.053 122.776 471.457 122.776H470.113V117.16H471.457C473.053 117.16 474.169 118.324 474.169 119.968ZM478.707 119.968C478.707 122.416 480.435 124.144 482.907 124.144C485.367 124.144 487.107 122.416 487.107 119.968C487.107 117.52 485.367 115.792 482.907 115.792C480.435 115.792 478.707 117.52 478.707 119.968ZM480.327 119.968C480.327 118.264 481.395 117.052 482.907 117.052C484.419 117.052 485.475 118.264 485.475 119.968C485.475 121.672 484.419 122.884 482.907 122.884C481.395 122.884 480.327 121.672 480.327 119.968ZM490.023 119.968C490.023 122.416 491.715 124.144 494.163 124.144C495.135 124.144 496.143 123.832 497.055 123.232L496.407 122.164C495.747 122.62 495.063 122.872 494.367 122.872C492.759 122.872 491.643 121.684 491.643 119.968C491.643 118.252 492.759 117.064 494.367 117.064C495.063 117.064 495.747 117.316 496.407 117.772L497.055 116.704C496.143 116.104 495.135 115.792 494.163 115.792C491.715 115.792 490.023 117.508 490.023 119.968ZM507.571 115.936H505.975V120.784C505.975 122.02 505.075 122.884 503.827 122.884C502.567 122.884 501.667 122.02 501.667 120.784V115.936H500.071V120.844C500.071 122.8 501.655 124.144 503.827 124.144C505.999 124.144 507.571 122.8 507.571 120.844V115.936ZM511.295 124H512.771V118.12L515.039 121.228H515.927L518.183 118.12V124H519.659V115.936H518.111L515.483 119.56L512.843 115.936H511.295V124ZM523.478 124H529.178V122.8H525.074V120.46H528.602V119.284H525.074V117.136H528.986V115.936H523.478V124ZM532.497 124H533.973V118.12L538.257 124H539.805V115.936H538.329V121.816L534.045 115.936H532.497V124ZM545.437 124H547.033V117.16H549.577V115.936H542.881V117.16H545.437V124ZM552.176 118.096C552.176 121.12 556.64 120.016 556.64 121.792C556.64 122.464 556.028 122.884 555.044 122.884C554.312 122.884 553.424 122.656 552.488 122.296L552.128 123.484C553.22 123.94 554.24 124.144 555.164 124.144C556.964 124.144 558.2 123.196 558.2 121.792C558.2 118.696 553.748 119.824 553.748 118.096C553.748 117.46 554.348 117.052 555.284 117.052C555.968 117.052 556.736 117.22 557.552 117.544L557.912 116.356C556.94 115.984 556.04 115.792 555.164 115.792C553.4 115.792 552.176 116.728 552.176 118.096Z" fill="#333333"/>
<path d="M514 273C521.713 273 529.254 275.287 535.667 279.573C542.081 283.858 547.08 289.949 550.031 297.075C552.983 304.202 553.755 312.043 552.251 319.609C550.746 327.174 547.031 334.123 541.577 339.577C536.123 345.032 529.174 348.746 521.609 350.251C514.043 351.756 506.202 350.983 499.075 348.031C491.949 345.08 485.858 340.081 481.573 333.667C477.287 327.254 475 319.714 475 312C475.012 301.66 479.124 291.747 486.436 284.436C493.747 277.124 503.66 273.012 514 273V273ZM514 272C506.089 272 498.355 274.346 491.777 278.741C485.199 283.137 480.072 289.384 477.045 296.693C474.017 304.002 473.225 312.044 474.769 319.804C476.312 327.563 480.122 334.69 485.716 340.284C491.31 345.878 498.437 349.688 506.196 351.232C513.956 352.775 521.998 351.983 529.307 348.955C536.616 345.928 542.864 340.801 547.259 334.223C551.654 327.645 554 319.911 554 312C554 301.391 549.786 291.217 542.284 283.716C534.783 276.214 524.609 272 514 272V272Z" fill="#E6E6E6"/>
<path d="M523.088 290H497.088C495.983 290 495.088 290.896 495.088 292V332C495.088 333.105 495.983 334 497.088 334H523.088C524.192 334 525.088 333.105 525.088 332V292C525.088 290.896 524.192 290 523.088 290Z" stroke="#E4002B" stroke-width="2" stroke-linecap="round" stroke-linejoin="round"/>
<path d="M514.87 317.253L510.088 319L511.335 313.718L535.377 289.676L538.912 293.211L514.87 317.253Z" fill="white" stroke="#E4002B" stroke-width="2" stroke-linecap="round" stroke-linejoin="round"/>
<path d="M531.852 293.201L535.387 296.737" stroke="#E4002B" stroke-width="2" stroke-linecap="round" stroke-linejoin="round"/>
<path fill-rule="evenodd" clip-rule="evenodd" d="M474 312L385 312L385 311L474 311L474 312Z" fill="#E6E6E6"/>
<path fill-rule="evenodd" clip-rule="evenodd" d="M305 312L216 312L216 311L305 311L305 312Z" fill="#E6E6E6"/>
<path d="M111.254 381H112.79V378.06H114.038L115.994 381H117.734L115.526 377.82C116.654 377.58 117.386 376.668 117.386 375.468C117.386 373.98 116.234 372.936 114.614 372.936H111.254V381ZM112.79 374.16H114.374C115.214 374.16 115.814 374.712 115.814 375.492C115.814 376.296 115.214 376.824 114.374 376.824H112.79V374.16ZM120.976 381H126.676V379.8H122.572V377.46H126.1V376.284H122.572V374.136H126.484V372.936H120.976V381ZM129.455 376.968C129.455 379.416 131.147 381.144 133.595 381.144C134.567 381.144 135.575 380.832 136.487 380.232L135.839 379.164C135.179 379.62 134.495 379.872 133.799 379.872C132.191 379.872 131.075 378.684 131.075 376.968C131.075 375.252 132.191 374.064 133.799 374.064C134.495 374.064 135.179 374.316 135.839 374.772L136.487 373.704C135.575 373.104 134.567 372.792 133.595 372.792C131.147 372.792 129.455 374.508 129.455 376.968ZM139.599 381H145.299V379.8H141.195V377.46H144.723V376.284H141.195V374.136H145.107V372.936H139.599V381ZM148.618 381H150.214V372.936H148.618V381ZM161.155 372.936H159.487L157.123 379.068L154.747 372.936H153.079L156.379 381H157.855L161.155 372.936ZM164.007 381H169.707V379.8H165.603V377.46H169.131V376.284H165.603V374.136H169.515V372.936H164.007V381ZM179.333 381H180.929V374.16H183.473V372.936H176.777V374.16H179.333V381ZM193.944 372.936H192.348V377.784C192.348 379.02 191.448 379.884 190.2 379.884C188.94 379.884 188.04 379.02 188.04 377.784V372.936H186.444V377.844C186.444 379.8 188.028 381.144 190.2 381.144C192.372 381.144 193.944 379.8 193.944 377.844V372.936ZM197.668 381H199.204V378.06H200.452L202.408 381H204.148L201.94 377.82C203.068 377.58 203.8 376.668 203.8 375.468C203.8 373.98 202.648 372.936 201.028 372.936H197.668V381ZM199.204 374.16H200.788C201.628 374.16 202.228 374.712 202.228 375.492C202.228 376.296 201.628 376.824 200.788 376.824H199.204V374.16ZM207.39 381H208.926V378.456L209.706 377.64L212.622 381H214.494L210.774 376.704L214.326 372.936H212.49L208.926 376.764V372.936H207.39V381ZM217.358 381H218.954V372.936H217.358V381ZM222.311 375.096C222.311 378.12 226.775 377.016 226.775 378.792C226.775 379.464 226.163 379.884 225.179 379.884C224.447 379.884 223.559 379.656 222.623 379.296L222.263 380.484C223.355 380.94 224.375 381.144 225.299 381.144C227.099 381.144 228.335 380.196 228.335 378.792C228.335 375.696 223.883 376.824 223.883 375.096C223.883 374.46 224.483 374.052 225.419 374.052C226.103 374.052 226.871 374.22 227.687 374.544L228.047 373.356C227.075 372.984 226.175 372.792 225.299 372.792C223.535 372.792 222.311 373.728 222.311 375.096ZM231.634 381H233.23V377.484H237.346V381H238.942V372.936H237.346V376.26H233.23V372.936H231.634V381ZM139.193 395H140.729V392.252H142.493C144.173 392.252 145.361 391.148 145.361 389.588C145.361 388.04 144.173 386.936 142.493 386.936H139.193V395ZM140.729 388.16H142.253C143.165 388.16 143.789 388.76 143.789 389.588C143.789 390.428 143.165 391.016 142.253 391.016H140.729V388.16ZM146.794 395H148.402L149.146 393.08H152.518L153.262 395H154.87L151.57 386.936H150.094L146.794 395ZM150.838 388.688L152.098 391.916H149.578L150.838 388.688ZM157.442 389.096C157.442 392.12 161.906 391.016 161.906 392.792C161.906 393.464 161.294 393.884 160.31 393.884C159.578 393.884 158.69 393.656 157.754 393.296L157.394 394.484C158.486 394.94 159.506 395.144 160.43 395.144C162.23 395.144 163.466 394.196 163.466 392.792C163.466 389.696 159.014 390.824 159.014 389.096C159.014 388.46 159.614 388.052 160.55 388.052C161.234 388.052 162.002 388.22 162.818 388.544L163.178 387.356C162.206 386.984 161.306 386.792 160.43 386.792C158.666 386.792 157.442 387.728 157.442 389.096ZM166.297 389.096C166.297 392.12 170.761 391.016 170.761 392.792C170.761 393.464 170.149 393.884 169.165 393.884C168.433 393.884 167.545 393.656 166.609 393.296L166.249 394.484C167.341 394.94 168.361 395.144 169.285 395.144C171.085 395.144 172.321 394.196 172.321 392.792C172.321 389.696 167.869 390.824 167.869 389.096C167.869 388.46 168.469 388.052 169.405 388.052C170.089 388.052 170.857 388.22 171.673 388.544L172.033 387.356C171.061 386.984 170.161 386.792 169.285 386.792C167.521 386.792 166.297 387.728 166.297 389.096ZM175.619 395H177.155V392.252H178.919C180.599 392.252 181.787 391.148 181.787 389.588C181.787 388.04 180.599 386.936 178.919 386.936H175.619V395ZM177.155 388.16H178.679C179.591 388.16 180.215 388.76 180.215 389.588C180.215 390.428 179.591 391.016 178.679 391.016H177.155V388.16ZM184.602 390.968C184.602 393.416 186.33 395.144 188.802 395.144C191.262 395.144 193.002 393.416 193.002 390.968C193.002 388.52 191.262 386.792 188.802 386.792C186.33 386.792 184.602 388.52 184.602 390.968ZM186.222 390.968C186.222 389.264 187.29 388.052 188.802 388.052C190.314 388.052 191.37 389.264 191.37 390.968C191.37 392.672 190.314 393.884 188.802 393.884C187.29 393.884 186.222 392.672 186.222 390.968ZM196.27 395H197.806V392.06H199.054L201.01 395H202.75L200.542 391.82C201.67 391.58 202.402 390.668 202.402 389.468C202.402 387.98 201.25 386.936 199.63 386.936H196.27V395ZM197.806 388.16H199.39C200.23 388.16 200.83 388.712 200.83 389.492C200.83 390.296 200.23 390.824 199.39 390.824H197.806V388.16ZM207.616 395H209.212V388.16H211.756V386.936H205.06V388.16H207.616V395Z" fill="#333333"/>
<path d="M315.129 375.096C315.129 378.12 319.593 377.016 319.593 378.792C319.593 379.464 318.981 379.884 317.997 379.884C317.265 379.884 316.377 379.656 315.441 379.296L315.081 380.484C316.173 380.94 317.193 381.144 318.117 381.144C319.917 381.144 321.153 380.196 321.153 378.792C321.153 375.696 316.701 376.824 316.701 375.096C316.701 374.46 317.301 374.052 318.237 374.052C318.921 374.052 319.689 374.22 320.505 374.544L320.865 373.356C319.893 372.984 318.993 372.792 318.117 372.792C316.353 372.792 315.129 373.728 315.129 375.096ZM331.855 372.936H330.259V377.784C330.259 379.02 329.359 379.884 328.111 379.884C326.851 379.884 325.951 379.02 325.951 377.784V372.936H324.355V377.844C324.355 379.8 325.939 381.144 328.111 381.144C330.283 381.144 331.855 379.8 331.855 377.844V372.936ZM335.579 381H339.287C340.823 381 341.939 380.088 341.939 378.768C341.939 377.844 341.399 377.1 340.535 376.8C341.195 376.5 341.651 375.876 341.651 375.072C341.651 373.812 340.595 372.936 339.095 372.936H335.579V381ZM337.115 377.4H339.035C339.827 377.4 340.367 377.892 340.367 378.612C340.367 379.332 339.827 379.836 339.035 379.836H337.115V377.4ZM337.115 374.1H338.879C339.599 374.1 340.115 374.568 340.115 375.228C340.115 375.888 339.599 376.344 338.879 376.344H337.115V374.1ZM345.301 381H346.777V375.12L349.045 378.228H349.933L352.189 375.12V381H353.665V372.936H352.117L349.489 376.56L346.849 372.936H345.301V381ZM357.484 381H359.08V372.936H357.484V381ZM364.717 381H366.313V374.16H368.857V372.936H362.161V374.16H364.717V381ZM298.672 390.968C298.672 393.416 300.364 395.144 302.812 395.144C303.784 395.144 304.792 394.832 305.704 394.232L305.056 393.164C304.396 393.62 303.712 393.872 303.016 393.872C301.408 393.872 300.292 392.684 300.292 390.968C300.292 389.252 301.408 388.064 303.016 388.064C303.712 388.064 304.396 388.316 305.056 388.772L305.704 387.704C304.792 387.104 303.784 386.792 302.812 386.792C300.364 386.792 298.672 388.508 298.672 390.968ZM308.816 395H310.412V386.936H308.816V395ZM316.049 395H317.645V388.16H320.189V386.936H313.493V388.16H316.049V395ZM323.256 395H324.852V386.936H323.256V395ZM328.161 395H334.809V393.776H330.213L334.665 387.848V386.936H328.305V388.16H332.613L328.161 394.088V395ZM338.106 395H343.806V393.8H339.702V391.46H343.23V390.284H339.702V388.136H343.614V386.936H338.106V395ZM347.125 395H348.601V389.12L352.885 395H354.433V386.936H352.957V392.816L348.673 386.936H347.125V395ZM357.785 389.096C357.785 392.12 362.249 391.016 362.249 392.792C362.249 393.464 361.637 393.884 360.653 393.884C359.921 393.884 359.033 393.656 358.097 393.296L357.737 394.484C358.829 394.94 359.849 395.144 360.773 395.144C362.573 395.144 363.809 394.196 363.809 392.792C363.809 389.696 359.357 390.824 359.357 389.096C359.357 388.46 359.957 388.052 360.893 388.052C361.577 388.052 362.345 388.22 363.161 388.544L363.521 387.356C362.549 386.984 361.649 386.792 360.773 386.792C359.009 386.792 357.785 387.728 357.785 389.096ZM367.108 395H368.704V391.484H372.82V395H374.416V386.936H372.82V390.26H368.704V386.936H367.108V395ZM378.236 395H379.832V386.936H378.236V395ZM383.657 395H385.193V392.252H386.957C388.637 392.252 389.825 391.148 389.825 389.588C389.825 388.04 388.637 386.936 386.957 386.936H383.657V395ZM385.193 388.16H386.717C387.629 388.16 388.253 388.76 388.253 389.588C388.253 390.428 387.629 391.016 386.717 391.016H385.193V388.16ZM296.142 409H297.75L298.494 407.08H301.866L302.61 409H304.218L300.918 400.936H299.442L296.142 409ZM300.186 402.688L301.446 405.916H298.926L300.186 402.688ZM307.07 409H308.606V406.252H310.37C312.05 406.252 313.238 405.148 313.238 403.588C313.238 402.04 312.05 400.936 310.37 400.936H307.07V409ZM308.606 402.16H310.13C311.042 402.16 311.666 402.76 311.666 403.588C311.666 404.428 311.042 405.016 310.13 405.016H308.606V402.16ZM316.405 409H317.941V406.252H319.705C321.385 406.252 322.573 405.148 322.573 403.588C322.573 402.04 321.385 400.936 319.705 400.936H316.405V409ZM317.941 402.16H319.465C320.377 402.16 321.001 402.76 321.001 403.588C321.001 404.428 320.377 405.016 319.465 405.016H317.941V402.16ZM325.74 409H330.924V407.776H327.336V400.936H325.74V409ZM333.997 409H335.593V400.936H333.997V409ZM338.879 404.968C338.879 407.416 340.571 409.144 343.019 409.144C343.991 409.144 344.999 408.832 345.911 408.232L345.263 407.164C344.603 407.62 343.919 407.872 343.223 407.872C341.615 407.872 340.499 406.684 340.499 404.968C340.499 403.252 341.615 402.064 343.223 402.064C343.919 402.064 344.603 402.316 345.263 402.772L345.911 401.704C344.999 401.104 343.991 400.792 343.019 400.792C340.571 400.792 338.879 402.508 338.879 404.968ZM348.251 409H349.859L350.603 407.08H353.975L354.719 409H356.327L353.027 400.936H351.551L348.251 409ZM352.295 402.688L353.555 405.916H351.035L352.295 402.688ZM360.03 409H361.626V402.16H364.17V400.936H357.474V402.16H360.03V409ZM367.237 409H368.833V400.936H367.237V409ZM372.118 404.968C372.118 407.416 373.846 409.144 376.318 409.144C378.778 409.144 380.518 407.416 380.518 404.968C380.518 402.52 378.778 400.792 376.318 400.792C373.846 400.792 372.118 402.52 372.118 404.968ZM373.738 404.968C373.738 403.264 374.806 402.052 376.318 402.052C377.83 402.052 378.886 403.264 378.886 404.968C378.886 406.672 377.83 407.884 376.318 407.884C374.806 407.884 373.738 406.672 373.738 404.968ZM383.786 409H385.262V403.12L389.546 409H391.094V400.936H389.618V406.816L385.334 400.936H383.786V409Z" fill="#333333"/>
<path d="M431.077 381H432.685L433.429 379.08H436.801L437.545 381H439.153L435.853 372.936H434.377L431.077 381ZM435.121 374.688L436.381 377.916H433.861L435.121 374.688ZM442.005 381H443.541V378.252H445.305C446.985 378.252 448.173 377.148 448.173 375.588C448.173 374.04 446.985 372.936 445.305 372.936H442.005V381ZM443.541 374.16H445.065C445.977 374.16 446.601 374.76 446.601 375.588C446.601 376.428 445.977 377.016 445.065 377.016H443.541V374.16ZM451.34 381H452.876V378.252H454.64C456.32 378.252 457.508 377.148 457.508 375.588C457.508 374.04 456.32 372.936 454.64 372.936H451.34V381ZM452.876 374.16H454.4C455.312 374.16 455.936 374.76 455.936 375.588C455.936 376.428 455.312 377.016 454.4 377.016H452.876V374.16ZM460.675 381H465.859V379.776H462.271V372.936H460.675V381ZM469.481 381H471.077V377.724L474.017 372.936H472.289L470.273 376.308L468.269 372.936H466.529L469.481 377.724V381ZM481.286 381H482.882V377.808H486.41V376.572H482.882V374.16H486.794V372.936H481.286V381ZM489.577 376.968C489.577 379.416 491.305 381.144 493.777 381.144C496.237 381.144 497.977 379.416 497.977 376.968C497.977 374.52 496.237 372.792 493.777 372.792C491.305 372.792 489.577 374.52 489.577 376.968ZM491.197 376.968C491.197 375.264 492.265 374.052 493.777 374.052C495.289 374.052 496.345 375.264 496.345 376.968C496.345 378.672 495.289 379.884 493.777 379.884C492.265 379.884 491.197 378.672 491.197 376.968ZM501.246 381H502.782V378.06H504.03L505.986 381H507.726L505.518 377.82C506.646 377.58 507.378 376.668 507.378 375.468C507.378 373.98 506.226 372.936 504.606 372.936H501.246V381ZM502.782 374.16H504.366C505.206 374.16 505.806 374.712 505.806 375.492C505.806 376.296 505.206 376.824 504.366 376.824H502.782V374.16ZM515.65 381H517.186V378.06H518.434L520.39 381H522.13L519.922 377.82C521.05 377.58 521.782 376.668 521.782 375.468C521.782 373.98 520.63 372.936 519.01 372.936H515.65V381ZM517.186 374.16H518.77C519.61 374.16 520.21 374.712 520.21 375.492C520.21 376.296 519.61 376.824 518.77 376.824H517.186V374.16ZM525.372 381H531.072V379.8H526.968V377.46H530.496V376.284H526.968V374.136H530.88V372.936H525.372V381ZM533.923 375.096C533.923 378.12 538.387 377.016 538.387 378.792C538.387 379.464 537.775 379.884 536.791 379.884C536.059 379.884 535.171 379.656 534.235 379.296L533.875 380.484C534.967 380.94 535.987 381.144 536.911 381.144C538.711 381.144 539.947 380.196 539.947 378.792C539.947 375.696 535.495 376.824 535.495 375.096C535.495 374.46 536.095 374.052 537.031 374.052C537.715 374.052 538.483 374.22 539.299 374.544L539.659 373.356C538.687 372.984 537.787 372.792 536.911 372.792C535.147 372.792 533.923 373.728 533.923 375.096ZM543.246 381H544.842V372.936H543.246V381ZM548.667 381H551.799C554.271 381 555.951 379.344 555.951 376.968C555.951 374.568 554.271 372.936 551.799 372.936H548.667V381ZM554.319 376.968C554.319 378.612 553.203 379.776 551.607 379.776H550.263V374.16H551.607C553.203 374.16 554.319 375.324 554.319 376.968ZM559.209 381H564.909V379.8H560.805V377.46H564.333V376.284H560.805V374.136H564.717V372.936H559.209V381ZM568.228 381H569.704V375.12L573.988 381H575.536V372.936H574.06V378.816L569.776 372.936H568.228V381ZM578.816 376.968C578.816 379.416 580.508 381.144 582.956 381.144C583.928 381.144 584.936 380.832 585.848 380.232L585.2 379.164C584.54 379.62 583.856 379.872 583.16 379.872C581.552 379.872 580.436 378.684 580.436 376.968C580.436 375.252 581.552 374.064 583.16 374.064C583.856 374.064 584.54 374.316 585.2 374.772L585.848 373.704C584.936 373.104 583.928 372.792 582.956 372.792C580.508 372.792 578.816 374.508 578.816 376.968ZM588.96 381H594.66V379.8H590.556V377.46H594.084V376.284H590.556V374.136H594.468V372.936H588.96V381ZM487.659 395H489.195V392.252H490.959C492.639 392.252 493.827 391.148 493.827 389.588C493.827 388.04 492.639 386.936 490.959 386.936H487.659V395ZM489.195 388.16H490.719C491.631 388.16 492.255 388.76 492.255 389.588C492.255 390.428 491.631 391.016 490.719 391.016H489.195V388.16ZM496.994 395H502.694V393.8H498.59V391.46H502.118V390.284H498.59V388.136H502.502V386.936H496.994V395ZM506.013 395H507.549V392.06H508.797L510.753 395H512.493L510.285 391.82C511.413 391.58 512.145 390.668 512.145 389.468C512.145 387.98 510.993 386.936 509.373 386.936H506.013V395ZM507.549 388.16H509.133C509.973 388.16 510.573 388.712 510.573 389.492C510.573 390.296 509.973 390.824 509.133 390.824H507.549V388.16ZM515.735 395H517.211V389.12L519.479 392.228H520.367L522.623 389.12V395H524.099V386.936H522.551L519.923 390.56L517.283 386.936H515.735V395ZM527.917 395H529.513V386.936H527.917V395ZM535.15 395H536.746V388.16H539.29V386.936H532.594V388.16H535.15V395Z" fill="#333333"/>
<g opacity="0.1">
<path d="M345 2.00012C352.713 2.00012 360.254 4.28743 366.667 8.57281C373.081 12.8582 378.08 18.9491 381.031 26.0755C383.983 33.2018 384.755 41.0434 383.251 48.6086C381.746 56.1739 378.031 63.123 372.577 68.5773C367.123 74.0315 360.174 77.7459 352.609 79.2507C345.043 80.7556 337.202 79.9832 330.075 77.0314C322.949 74.0796 316.858 69.0809 312.573 62.6674C308.287 56.2538 306 48.7136 306 41.0001C306.012 30.6603 310.124 20.7472 317.436 13.4358C324.747 6.12446 334.66 2.01179 345 2.00012V2.00012ZM345 1.00012C337.089 1.00012 329.355 3.34608 322.777 7.74134C316.199 12.1366 311.072 18.3837 308.045 25.6928C305.017 33.0018 304.225 41.0445 305.769 48.8037C307.312 56.563 311.122 63.6903 316.716 69.2844C322.31 74.8785 329.437 78.6881 337.196 80.2315C344.956 81.7749 352.998 80.9828 360.307 77.9553C367.616 74.9278 373.864 69.8009 378.259 63.2229C382.654 56.645 385 48.9114 385 41.0001C385 30.3915 380.786 20.2173 373.284 12.7159C365.783 5.2144 355.609 1.00012 345 1.00012V1.00012Z" fill="black"/>
</g>
<path d="M373 30.9999V58.9999H317V30.9999" stroke="#E4002B" stroke-width="2" stroke-linecap="round" stroke-linejoin="round"/>
<path d="M373 26.9999V54.9999H317V26.9999" stroke="#E4002B" stroke-width="2" stroke-linecap="round" stroke-linejoin="round"/>
<path d="M373 22.9999H317V50.9999H373V22.9999Z" stroke="#E4002B" stroke-width="2" stroke-linecap="round" stroke-linejoin="round"/>
<path d="M362.425 27.9999C362.782 29.3375 363.485 30.5574 364.464 31.5363C365.442 32.5151 366.662 33.2182 368 33.5745V40.4253C366.662 40.7815 365.442 41.4846 364.464 42.4635C363.485 43.4423 362.782 44.6622 362.425 45.9999H327.575C327.218 44.6622 326.515 43.4423 325.536 42.4635C324.558 41.4846 323.338 40.7815 322 40.4253V33.5745C323.338 33.2182 324.558 32.5151 325.536 31.5363C326.515 30.5574 327.218 29.3375 327.575 27.9999H362.425ZM364.167 25.9999H325.833C325.833 26.7659 325.682 27.5245 325.389 28.2322C325.096 28.9399 324.666 29.583 324.125 30.1247C323.583 30.6663 322.94 31.096 322.232 31.3892C321.525 31.6823 320.766 31.8332 320 31.8332V42.1666C320.766 42.1666 321.525 42.3174 322.232 42.6106C322.94 42.9037 323.583 43.3334 324.125 43.8751C324.666 44.4168 325.096 45.0598 325.389 45.7676C325.682 46.4753 325.833 47.2338 325.833 47.9999H364.167C364.167 46.4528 364.781 44.9691 365.875 43.8751C366.969 42.7812 368.453 42.1666 370 42.1666V31.8332C368.453 31.8332 366.969 31.2186 365.875 30.1246C364.781 29.0307 364.167 27.547 364.167 25.9999V25.9999Z" fill="#E4002B"/>
<path d="M345 31.9999C345.989 31.9999 346.956 32.2931 347.778 32.8425C348.6 33.3919 349.241 34.1728 349.619 35.0865C349.998 36.0001 350.097 37.0054 349.904 37.9753C349.711 38.9452 349.235 39.8361 348.536 40.5354C347.836 41.2347 346.945 41.7109 345.975 41.9038C345.006 42.0967 344 41.9977 343.087 41.6193C342.173 41.2408 341.392 40.6 340.843 39.7777C340.293 38.9555 340 37.9888 340 36.9999C340.002 35.6743 340.529 34.4034 341.466 33.466C342.403 32.5287 343.674 32.0014 345 31.9999V31.9999ZM345 29.9999C343.616 29.9999 342.262 30.4104 341.111 31.1796C339.96 31.9488 339.063 33.042 338.533 34.3211C338.003 35.6002 337.864 37.0076 338.135 38.3655C338.405 39.7234 339.071 40.9707 340.05 41.9496C341.029 42.9286 342.277 43.5953 343.634 43.8654C344.992 44.1355 346.4 43.9968 347.679 43.467C348.958 42.9372 350.051 42.04 350.82 40.8889C351.589 39.7377 352 38.3843 352 36.9999C352 35.1434 351.263 33.3629 349.95 32.0501C348.637 30.7374 346.857 29.9999 345 29.9999Z" fill="#E4002B"/>
<circle cx="176" cy="312" r="40" fill="#E4002B"/>
<path d="M190 337H162C161.47 337 160.961 336.789 160.586 336.414C160.211 336.039 160 335.531 160 335V294H190C190.53 294 191.039 294.211 191.414 294.586C191.789 294.961 192 295.47 192 296V335C192 335.531 191.789 336.039 191.414 336.414C191.039 336.789 190.53 337 190 337Z" stroke="white" stroke-width="2" stroke-linecap="round" stroke-linejoin="round"/>
<path d="M187 294V286.096C187 285.769 186.92 285.447 186.766 285.158C186.613 284.869 186.391 284.622 186.12 284.439C185.848 284.256 185.537 284.142 185.211 284.107C184.886 284.073 184.557 284.119 184.253 284.241L160 294" stroke="white" stroke-width="2" stroke-linecap="round" stroke-linejoin="round"/>
<path d="M168 299H184" stroke="white" stroke-width="2" stroke-linecap="round" stroke-linejoin="round"/>
<path d="M165 304H187" stroke="white" stroke-width="2" stroke-linecap="round" stroke-linejoin="round"/>
<path d="M168 332H184" stroke="white" stroke-width="2" stroke-linecap="round" stroke-linejoin="round"/>
<path d="M185 310H167C165.895 310 165 310.896 165 312V324C165 325.105 165.895 326 167 326H185C186.105 326 187 325.105 187 324V312C187 310.896 186.105 310 185 310Z" stroke="white" stroke-width="2" stroke-linecap="round" stroke-linejoin="round"/>
<path d="M514 1C521.713 1 529.254 3.28731 535.667 7.57269C542.081 11.8581 547.08 17.949 550.031 25.0753C552.983 32.2017 553.755 40.0433 552.251 47.6085C550.746 55.1738 547.031 62.1229 541.577 67.5772C536.123 73.0314 529.174 76.7458 521.609 78.2506C514.043 79.7554 506.202 78.9831 499.075 76.0313C491.949 73.0795 485.858 68.0808 481.573 61.6672C477.287 55.2537 475 47.7135 475 40C475.012 29.6601 479.124 19.7471 486.436 12.4357C493.747 5.12434 503.66 1.01167 514 1V1ZM514 0C506.089 0 498.355 2.34596 491.777 6.74122C485.199 11.1365 480.072 17.3836 477.045 24.6927C474.017 32.0017 473.225 40.0444 474.769 47.8036C476.312 55.5629 480.122 62.6902 485.716 68.2843C491.31 73.8784 498.437 77.688 506.196 79.2314C513.956 80.7748 521.998 79.9827 529.307 76.9552C536.616 73.9277 542.864 68.8008 547.259 62.2228C551.654 55.6448 554 47.9113 554 40C554 29.3913 549.786 19.2172 542.284 11.7157C534.783 4.21427 524.609 0 514 0V0Z" fill="#E6E6E6"/>
<path d="M531 66.0001H505C504.47 66.0001 503.961 65.7894 503.586 65.4143C503.211 65.0393 503 64.5306 503 64.0001V30.0001L511 22.0001H531C531.53 22.0001 532.039 22.2108 532.414 22.5859C532.789 22.961 533 23.4697 533 24.0001V64.0001C533 64.5306 532.789 65.0393 532.414 65.4143C532.039 65.7894 531.53 66.0001 531 66.0001Z" stroke="#E4002B" stroke-width="2" stroke-linecap="round" stroke-linejoin="round"/>
<path d="M527 62.0001H501C500.47 62.0001 499.961 61.7894 499.586 61.4143C499.211 61.0393 499 60.5306 499 60.0001V26.0001L507 18.0001H527C527.53 18.0001 528.039 18.2108 528.414 18.5859C528.789 18.961 529 19.4697 529 20.0001V60.0001C529 60.5306 528.789 61.0393 528.414 61.4143C528.039 61.7894 527.53 62.0001 527 62.0001Z" fill="white" stroke="#E4002B" stroke-width="2" stroke-linecap="round" stroke-linejoin="round"/>
<path d="M523 58.0001H497C496.47 58.0001 495.961 57.7894 495.586 57.4143C495.211 57.0393 495 56.5306 495 56.0001V22.0001L503 14.0001H523C523.53 14.0001 524.039 14.2108 524.414 14.5859C524.789 14.961 525 15.4697 525 16.0001V56.0001C525 56.5306 524.789 57.0393 524.414 57.4143C524.039 57.7894 523.53 58.0001 523 58.0001Z" fill="white" stroke="#E4002B" stroke-width="2" stroke-linecap="round" stroke-linejoin="round"/>
<path d="M501 30.0001H519" stroke="#E4002B" stroke-width="2" stroke-linecap="round" stroke-linejoin="round"/>
<path d="M501 36.0001H519" stroke="#E4002B" stroke-width="2" stroke-linecap="round" stroke-linejoin="round"/>
<path d="M501 42.0001H519" stroke="#E4002B" stroke-width="2" stroke-linecap="round" stroke-linejoin="round"/>
<path d="M503 14.0001V22.0001H495" stroke="#E4002B" stroke-width="2" stroke-linecap="round" stroke-linejoin="round"/>
<path d="M345 273C352.713 273 360.254 275.287 366.667 279.573C373.081 283.858 378.08 289.949 381.031 297.075C383.983 304.202 384.755 312.043 383.251 319.609C381.746 327.174 378.031 334.123 372.577 339.577C367.123 345.031 360.174 348.746 352.609 350.251C345.043 351.755 337.202 350.983 330.075 348.031C322.949 345.079 316.858 340.081 312.573 333.667C308.287 327.254 306 319.713 306 312C306.012 301.66 310.124 291.747 317.436 284.436C324.747 277.124 334.66 273.012 345 273V273ZM345 272C337.089 272 329.355 274.346 322.777 278.741C316.199 283.136 311.072 289.384 308.045 296.693C305.017 304.002 304.225 312.044 305.769 319.804C307.312 327.563 311.122 334.69 316.716 340.284C322.31 345.878 329.437 349.688 337.196 351.231C344.956 352.775 352.998 351.983 360.307 348.955C367.616 345.928 373.864 340.801 378.259 334.223C382.654 327.645 385 319.911 385 312C385 301.391 380.786 291.217 373.284 283.716C365.783 276.214 355.609 272 345 272V272Z" fill="#E6E6E6"/>
<path d="M352 290H326C324.895 290 324 290.895 324 292V332C324 333.105 324.895 334 326 334H352C353.105 334 354 333.105 354 332V292C354 290.895 353.105 290 352 290Z" stroke="#E4002B" stroke-width="2" stroke-linecap="round" stroke-linejoin="round"/>
<path d="M330 296H348" stroke="#E4002B" stroke-width="2" stroke-linecap="round" stroke-linejoin="round"/>
<path d="M330 302H348" stroke="#E4002B" stroke-width="2" stroke-linecap="round" stroke-linejoin="round"/>
<path d="M330 308H348" stroke="#E4002B" stroke-width="2" stroke-linecap="round" stroke-linejoin="round"/>
<path d="M330 328H336" stroke="#E4002B" stroke-width="2" stroke-linecap="round" stroke-linejoin="round"/>
<path d="M348.991 324.753L344.748 320.51L365.84 299.419C366.118 299.14 366.449 298.919 366.813 298.768C367.177 298.617 367.567 298.54 367.961 298.54C368.355 298.54 368.745 298.617 369.109 298.768C369.473 298.919 369.804 299.14 370.083 299.419V299.419C370.361 299.697 370.582 300.028 370.733 300.392C370.884 300.756 370.961 301.146 370.961 301.54C370.961 301.934 370.884 302.324 370.733 302.688C370.582 303.052 370.361 303.383 370.083 303.661L348.991 324.753Z" fill="white" stroke="#E4002B" stroke-width="2" stroke-linecap="round" stroke-linejoin="round"/>
<path d="M344.748 320.51L341.92 327.581L348.991 324.753L344.748 320.51Z" fill="white" stroke="#E4002B" stroke-width="2" stroke-linecap="round" stroke-linejoin="round"/>
<path d="M364.258 301L368.5 305.243" stroke="#E4002B" stroke-width="2" stroke-linecap="round" stroke-linejoin="round"/>
</svg>
